
<svg
width="19"
height="19"
viewBox="0 0 19 19"
fill="none"
xmlns="http://www.w3.org/2000/svg"
>
<path
  d="M1.41999 18.5789C1.28125 18.5787 1.14408 18.5496 1.0172 18.4934C0.890315 18.4373 0.7765 18.3554 0.68299 18.2529C0.587788 18.1513 0.515143 18.0307 0.469818 17.899C0.424493 17.7674 0.407513 17.6276 0.41999 17.4889L0.66499 14.7949L11.983 3.48091L15.52 7.01691L4.20499 18.3299L1.51099 18.5749C1.48074 18.5777 1.45037 18.579 1.41999 18.5789V18.5789ZM16.226 6.30991L12.69 2.77391L14.811 0.652906C14.9039 0.559929 15.0142 0.48617 15.1355 0.435846C15.2569 0.385522 15.3871 0.359619 15.5185 0.359619C15.6499 0.359619 15.78 0.385522 15.9014 0.435846C16.0228 0.48617 16.1331 0.559929 16.226 0.652906L18.347 2.77391C18.44 2.86678 18.5137 2.97707 18.5641 3.09847C18.6144 3.21986 18.6403 3.34999 18.6403 3.48141C18.6403 3.61282 18.6144 3.74295 18.5641 3.86435C18.5137 3.98574 18.44 4.09603 18.347 4.18891L16.227 6.30891L16.226 6.30991V6.30991Z"
  fill="black"
/>
</svg>

