<svg width="266" height="78" viewBox="0 0 109 32" fill="none" xmlns="http://www.w3.org/2000/svg">
    <path d="M45.9763 18.1805H40.9646L40.0085 20.4944H37.4487L42.2599 9.69617H44.7272L49.5538 20.4944H46.9323L45.9763 18.1805ZM45.1898 16.2831L43.4781 12.1489L41.7665 16.2831H45.1898Z" fill="black"/>
    <path d="M50.5041 9.04828H52.9097V20.4944H50.5041V9.04828Z" fill="black"/>
    <path d="M55.1423 9.04828H57.5479V20.4944H55.1423V9.04828Z" fill="black"/>
    <path d="M62.5716 20.6178C61.8828 20.6178 61.2094 20.5355 60.5515 20.371C59.8936 20.1962 59.3693 19.9802 58.9786 19.7231L59.7805 17.9954C60.1506 18.2319 60.5978 18.4273 61.1221 18.5816C61.6464 18.7255 62.1604 18.7975 62.6641 18.7975C63.6819 18.7975 64.1907 18.5456 64.1907 18.0417C64.1907 17.8051 64.0519 17.6354 63.7744 17.5326C63.4968 17.4298 63.0702 17.3423 62.4945 17.2704C61.816 17.1675 61.2557 17.0492 60.8136 16.9156C60.3716 16.7819 59.9861 16.5453 59.6571 16.206C59.3384 15.8666 59.1791 15.3832 59.1791 14.7559C59.1791 14.2314 59.3281 13.7686 59.6263 13.3676C59.9347 12.9562 60.3767 12.6374 60.9524 12.4112C61.5384 12.1849 62.2272 12.0718 63.0188 12.0718C63.6048 12.0718 64.1856 12.1386 64.7613 12.2723C65.3473 12.3957 65.8304 12.5706 66.2108 12.7968L65.4089 14.5091C64.679 14.0977 63.8823 13.8921 63.0188 13.8921C62.5048 13.8921 62.1192 13.964 61.8622 14.108C61.6052 14.252 61.4767 14.4371 61.4767 14.6634C61.4767 14.9205 61.6155 15.1004 61.8931 15.2033C62.1706 15.3061 62.6127 15.4038 63.2192 15.4964C63.8977 15.6095 64.4529 15.7329 64.8847 15.8666C65.3164 15.99 65.6917 16.2214 66.0103 16.5608C66.329 16.9001 66.4884 17.3732 66.4884 17.9799C66.4884 18.4942 66.3342 18.9518 66.0258 19.3529C65.7174 19.7539 65.265 20.0676 64.6688 20.2939C64.0828 20.5098 63.3837 20.6178 62.5716 20.6178Z" fill="black"/>
    <path d="M72.8763 12.0718C73.6473 12.0718 74.3464 12.2518 74.9735 12.6117C75.6109 12.9613 76.1095 13.4601 76.4693 14.108C76.8291 14.7456 77.009 15.4912 77.009 16.3448C77.009 17.1984 76.8291 17.9491 76.4693 18.597C76.1095 19.2346 75.6109 19.7334 74.9735 20.0933C74.3464 20.443 73.6473 20.6178 72.8763 20.6178C71.8174 20.6178 70.9847 20.2836 70.3782 19.6151V23.487H67.9726V12.1952H70.2703V13.1516C70.8665 12.4317 71.7352 12.0718 72.8763 12.0718ZM72.46 18.6433C73.0768 18.6433 73.5805 18.4376 73.9712 18.0262C74.3721 17.6046 74.5726 17.0441 74.5726 16.3448C74.5726 15.6455 74.3721 15.0901 73.9712 14.6788C73.5805 14.2571 73.0768 14.0463 72.46 14.0463C71.8431 14.0463 71.3343 14.2571 70.9333 14.6788C70.5427 15.0901 70.3474 15.6455 70.3474 16.3448C70.3474 17.0441 70.5427 17.6046 70.9333 18.0262C71.3343 18.4376 71.8431 18.6433 72.46 18.6433Z" fill="black"/>
    <path d="M82.567 20.6178C81.6932 20.6178 80.9067 20.4378 80.2077 20.0779C79.5189 19.7077 78.9792 19.1986 78.5885 18.5507C78.1979 17.9028 78.0025 17.1675 78.0025 16.3448C78.0025 15.5221 78.1979 14.7868 78.5885 14.1389C78.9792 13.491 79.5189 12.9871 80.2077 12.6271C80.9067 12.2569 81.6932 12.0718 82.567 12.0718C83.4408 12.0718 84.2221 12.2569 84.9109 12.6271C85.5997 12.9871 86.1394 13.491 86.5301 14.1389C86.9207 14.7868 87.116 15.5221 87.116 16.3448C87.116 17.1675 86.9207 17.9028 86.5301 18.5507C86.1394 19.1986 85.5997 19.7077 84.9109 20.0779C84.2221 20.4378 83.4408 20.6178 82.567 20.6178ZM82.567 18.6433C83.1838 18.6433 83.6876 18.4376 84.0782 18.0262C84.4791 17.6046 84.6796 17.0441 84.6796 16.3448C84.6796 15.6455 84.4791 15.0901 84.0782 14.6788C83.6876 14.2571 83.1838 14.0463 82.567 14.0463C81.9502 14.0463 81.4413 14.2571 81.0404 14.6788C80.6394 15.0901 80.439 15.6455 80.439 16.3448C80.439 17.0441 80.6394 17.6046 81.0404 18.0262C81.4413 18.4376 81.9502 18.6433 82.567 18.6433Z" fill="black"/>
    <path d="M91.0216 13.2904C91.3095 12.8894 91.695 12.586 92.1782 12.3803C92.6716 12.1746 93.237 12.0718 93.8744 12.0718V14.2931C93.6071 14.2726 93.4272 14.2623 93.3347 14.2623C92.6459 14.2623 92.1062 14.4577 91.7156 14.8485C91.3249 15.229 91.1296 15.8049 91.1296 16.5762V20.4944H88.724V12.1952H91.0216V13.2904Z" fill="black"/>
    <path d="M100.942 20.0933C100.705 20.2681 100.412 20.4018 100.063 20.4944C99.7236 20.5767 99.3638 20.6178 98.9834 20.6178C97.9965 20.6178 97.2306 20.3658 96.6858 19.8619C96.1512 19.358 95.8839 18.6176 95.8839 17.6406V14.2314H94.604V12.3803H95.8839V10.3595H98.2895V12.3803H100.356V14.2314H98.2895V17.6097C98.2895 17.9594 98.3769 18.2319 98.5517 18.4273C98.7367 18.6124 98.9937 18.705 99.3227 18.705C99.703 18.705 100.027 18.6021 100.294 18.3965L100.942 20.0933Z" fill="black"/>
    <path d="M105.083 20.6178C104.395 20.6178 103.721 20.5355 103.063 20.371C102.405 20.1962 101.881 19.9802 101.49 19.7231L102.292 17.9954C102.662 18.2319 103.109 18.4273 103.634 18.5816C104.158 18.7255 104.672 18.7975 105.176 18.7975C106.194 18.7975 106.702 18.5456 106.702 18.0417C106.702 17.8051 106.564 17.6354 106.286 17.5326C106.009 17.4298 105.582 17.3423 105.006 17.2704C104.328 17.1675 103.767 17.0492 103.325 16.9156C102.883 16.7819 102.498 16.5453 102.169 16.206C101.85 15.8666 101.691 15.3832 101.691 14.7559C101.691 14.2314 101.84 13.7686 102.138 13.3676C102.446 12.9562 102.888 12.6374 103.464 12.4112C104.05 12.1849 104.739 12.0718 105.531 12.0718C106.116 12.0718 106.697 12.1386 107.273 12.2723C107.859 12.3957 108.342 12.5706 108.723 12.7968L107.921 14.5091C107.191 14.0977 106.394 13.8921 105.531 13.8921C105.016 13.8921 104.631 13.964 104.374 14.108C104.117 14.252 103.988 14.4371 103.988 14.6634C103.988 14.9205 104.127 15.1004 104.405 15.2033C104.682 15.3061 105.124 15.4038 105.731 15.4964C106.409 15.6095 106.965 15.7329 107.396 15.8666C107.828 15.99 108.203 16.2214 108.522 16.5608C108.841 16.9001 109 17.3732 109 17.9799C109 18.4942 108.846 18.9518 108.537 19.3529C108.229 19.7539 107.777 20.0676 107.18 20.2939C106.595 20.5098 105.895 20.6178 105.083 20.6178Z" fill="black"/>
    <path d="M13.5937 16.8477H0.0322266L1.33249 19.178C3.33125 17.985 5.8888 18.6874 7.04937 20.7724C8.19919 22.8462 7.52219 25.4998 5.51269 26.704L6.81296 29.0454L13.5937 16.8477Z" fill="#346AED"/>
    <path d="M13.5615 15.2089L6.78073 3.02231L5.48046 5.35258C7.47922 6.55674 8.16696 9.21036 7.01714 11.2842C5.85657 13.358 3.29902 14.0716 1.30027 12.8786L0 15.2089H13.5615Z" fill="#346AED"/>
    <path d="M14.9155 14.3607L21.6962 2.17416H19.0957C19.0957 4.57133 17.2259 6.51137 14.9155 6.51137C12.6051 6.51137 10.7353 4.57133 10.7353 2.17416H8.13477L14.9155 14.3607Z" fill="#346AED"/>
    <path d="M16.3018 15.1531H29.8632L28.5629 12.8228C26.5642 14.0158 24.0066 13.3134 22.8461 11.2284C21.6963 9.15461 22.3732 6.501 24.3828 5.29684L23.0825 2.95541L16.3018 15.1531Z" fill="#346AED"/>
    <path d="M16.334 16.7807L23.1147 28.9673L24.415 26.6259C22.4162 25.4217 21.7285 22.7681 22.8783 20.6943C24.0389 18.6204 26.5964 17.9069 28.5952 19.0999L29.8954 16.7696H16.334V16.7807Z" fill="#346AED"/>
    <path d="M14.9799 17.6387L8.19922 29.8252H10.7997C10.7997 27.4281 12.6696 25.488 14.9799 25.488C17.2903 25.488 19.1601 27.4281 19.1601 29.8252H21.7607L14.9799 17.6387Z" fill="#001560"/>
    <path d="M17.0752 2.17456C17.0752 3.37892 16.1403 4.34911 14.9797 4.34911C13.8299 4.34911 12.8843 3.37892 12.8843 2.17456C12.8843 0.981338 13.8192 0 14.9797 0C16.1403 0 17.0752 0.970187 17.0752 2.17456Z" fill="#001560"/>
    <path d="M17.0757 29.8254C17.0757 31.0298 16.1408 32 14.9802 32C13.8304 32 12.8848 31.0298 12.8848 29.8254C12.8848 28.6322 13.8197 27.6509 14.9802 27.6509C16.1408 27.6509 17.0757 28.6211 17.0757 29.8254Z" fill="#346AED"/>
    <path d="M5.8135 22.5672C5.8135 23.7715 4.8786 24.7417 3.71803 24.7417C2.56821 24.7417 1.62256 23.7715 1.62256 22.5672C1.62256 21.3739 2.55746 20.3926 3.71803 20.3926C4.86785 20.3926 5.8135 21.3628 5.8135 22.5672Z" fill="#001560"/>
    <path d="M28.5952 22.5672C28.5952 23.7715 27.6603 24.7417 26.4998 24.7417C25.3499 24.7417 24.4043 23.7715 24.4043 22.5672C24.4043 21.3739 25.3392 20.3926 26.4998 20.3926C27.6496 20.3926 28.5952 21.3628 28.5952 22.5672Z" fill="#001560"/>
    <path d="M28.5952 9.10989C28.5952 10.3143 27.6603 11.2844 26.4998 11.2844C25.3499 11.2844 24.4043 10.3143 24.4043 9.10989C24.4043 7.91667 25.3392 6.93533 26.4998 6.93533C27.6496 6.94648 28.5952 7.91667 28.5952 9.10989Z" fill="#001560"/>
    <path d="M5.8135 9.10989C5.8135 10.3143 4.8786 11.2844 3.71803 11.2844C2.56821 11.2844 1.62256 10.3143 1.62256 9.10989C1.62256 7.91667 2.55746 6.93533 3.71803 6.93533C4.86785 6.94648 5.8135 7.91667 5.8135 9.10989Z" fill="#001560"/>
  </svg>