<svg width="14" height="14" viewBox="0 0 14 14" fill="none" xmlns="http://www.w3.org/2000/svg">
<path d="M11.8001 3.8H1.8001V3.4L10.6001 2.696V3.4H11.8001V2.2C11.8001 1.32 11.0873 0.702404 10.2169 0.826404L2.1841 1.9736C1.3129 2.0984 0.600098 2.92 0.600098 3.8V11.8C0.600098 12.2244 0.768669 12.6313 1.06873 12.9314C1.36878 13.2314 1.77575 13.4 2.2001 13.4H11.8001C12.2244 13.4 12.6314 13.2314 12.9315 12.9314C13.2315 12.6313 13.4001 12.2244 13.4001 11.8V5.4C13.4001 4.97566 13.2315 4.56869 12.9315 4.26863C12.6314 3.96858 12.2244 3.8 11.8001 3.8V3.8ZM10.6001 9.4048C10.4425 9.40475 10.2864 9.37365 10.1408 9.31328C9.99513 9.2529 9.86283 9.16444 9.7514 9.05293C9.63997 8.94143 9.5516 8.80907 9.49132 8.66341C9.43104 8.51775 9.40004 8.36164 9.4001 8.204C9.40015 8.04637 9.43125 7.89028 9.49163 7.74466C9.552 7.59904 9.64046 7.46674 9.75197 7.35531C9.86347 7.24388 9.99583 7.1555 10.1415 7.09523C10.2872 7.03495 10.4433 7.00395 10.6009 7.004C10.9193 7.00411 11.2245 7.13068 11.4496 7.35588C11.6746 7.58107 11.801 7.88644 11.8009 8.2048C11.8008 8.52317 11.6742 8.82845 11.449 9.0535C11.2238 9.27854 10.9185 9.40491 10.6001 9.4048Z" fill="black"/>
</svg>
